<svg xmlns="http://www.w3.org/2000/svg" xmlns:xlink="http://www.w3.org/1999/xlink" aria-hidden="true" role="img" class="iconify iconify--logos" width="31.88" height="32" preserveAspectRatio="xMidYMid meet" viewBox="0 0 256 257"><defs><linearGradient id="IconifyId1813088fe1fbc01fb466" x1="-.828%" x2="57.636%" y1="7.652%" y2="78.411%"><stop offset="0%" stop-color="#41D1FF"></stop><stop offset="100%" stop-color="#BD34FE"></stop></linearGradient><linearGradient id="IconifyId1813088fe1fbc01fb467" x1="43.376%" x2="50.316%" y1="2.242%" y2="89.03%"><stop offset="0%" stop-color="#FFEA83"></stop><stop offset="8.333%" stop-color="#FFDD35"></stop><stop offset="100%" stop-color="#FFA800"></stop></linearGradient></defs><path fill="url(#IconifyId1813088fe1fbc01fb466)" d="M255.153 37.938L134.897 252.976c-2.483 4.44-8.862 4.466-11.382.048L.875 37.958c-1.986-3.474-.416-7.847 3.298-9.172l.088-.031C5.723 28.181 29.59 19.865 74.49 19.865c27.103 0 54.084 3.033 73.197 5.76c19.11-2.727 46.095-5.76 73.194-5.76c44.91 0 68.79 8.324 70.26 8.9l.065.024c3.714 1.325 5.284 5.698 3.298 9.172"></path><path fill="url(#IconifyId1813088fe1fbc01fb467)" d="M129.205 20.353c-15.684 0-33.882 1.378-50.627 3.023l42.665 210.999c1.94 9.592 15.61 9.593 17.551 0L181.42 23.368c-16.732-1.637-34.912-3.015-50.596-3.015H129.2z"></path></svg>
